<mxfile host="app.diagrams.net" modified="2020-09-09T09:11:41.276Z" agent="5.0 (Windows NT 10.0; Win64; x64) AppleWebKit/537.36 (KHTML, like Gecko) Chrome/85.0.4183.83 Safari/537.36" etag="wBysxwe4C2dfmeEtIUj9" version="13.6.9" type="github">
  <diagram id="ook9Db0-evyYNzVYjQom" name="Page-1">
    <mxGraphModel dx="1422" dy="794" grid="1" gridSize="10" guides="1" tooltips="1" connect="1" arrows="1" fold="1" page="1" pageScale="1" pageWidth="827" pageHeight="1169" math="0" shadow="0">
      <root>
        <mxCell id="0" />
        <mxCell id="1" parent="0" />
        <mxCell id="jdIevu10ISh2WPGB3EqM-3" value="" style="edgeStyle=orthogonalEdgeStyle;rounded=0;orthogonalLoop=1;jettySize=auto;html=1;" edge="1" parent="1" target="jdIevu10ISh2WPGB3EqM-2">
          <mxGeometry relative="1" as="geometry">
            <mxPoint x="354" y="170" as="sourcePoint" />
            <Array as="points">
              <mxPoint x="350" y="170" />
            </Array>
          </mxGeometry>
        </mxCell>
        <mxCell id="jdIevu10ISh2WPGB3EqM-1" value="应用程序" style="rounded=1;whiteSpace=wrap;html=1;" vertex="1" parent="1">
          <mxGeometry x="250" y="110" width="150" height="60" as="geometry" />
        </mxCell>
        <mxCell id="jdIevu10ISh2WPGB3EqM-2" value="系统库Glibc" style="whiteSpace=wrap;html=1;rounded=1;" vertex="1" parent="1">
          <mxGeometry x="310" y="210" width="120" height="60" as="geometry" />
        </mxCell>
        <mxCell id="jdIevu10ISh2WPGB3EqM-4" value="系统调用接口" style="whiteSpace=wrap;html=1;rounded=1;" vertex="1" parent="1">
          <mxGeometry x="225" y="310" width="210" height="60" as="geometry" />
        </mxCell>
        <mxCell id="jdIevu10ISh2WPGB3EqM-7" value="" style="endArrow=classic;html=1;exitX=0.25;exitY=1;exitDx=0;exitDy=0;entryX=0.3;entryY=0.017;entryDx=0;entryDy=0;entryPerimeter=0;" edge="1" parent="1" source="jdIevu10ISh2WPGB3EqM-1" target="jdIevu10ISh2WPGB3EqM-4">
          <mxGeometry width="50" height="50" relative="1" as="geometry">
            <mxPoint x="390" y="430" as="sourcePoint" />
            <mxPoint x="440" y="380" as="targetPoint" />
          </mxGeometry>
        </mxCell>
        <mxCell id="jdIevu10ISh2WPGB3EqM-8" value="" style="endArrow=classic;html=1;exitX=0.308;exitY=1.033;exitDx=0;exitDy=0;exitPerimeter=0;entryX=0.581;entryY=-0.017;entryDx=0;entryDy=0;entryPerimeter=0;" edge="1" parent="1">
          <mxGeometry width="50" height="50" relative="1" as="geometry">
            <mxPoint x="350.96000000000004" y="271.98" as="sourcePoint" />
            <mxPoint x="351.01" y="308.98" as="targetPoint" />
          </mxGeometry>
        </mxCell>
      </root>
    </mxGraphModel>
  </diagram>
</mxfile>
